<svg width="29" height="29" viewBox="0 0 29 29" fill="none" xmlns="http://www.w3.org/2000/svg">
<path d="M24.7326 4.21957C23.3986 2.87702 21.8099 1.81252 20.0589 1.0881C18.308 0.363677 16.4299 -0.00618158 14.5341 7.81477e-05C6.59052 7.81477e-05 0.116389 6.45256 0.116389 14.3695C0.116389 16.907 0.785625 19.372 2.03681 21.547L0 29L7.63802 26.999C9.74757 28.1445 12.119 28.7535 14.5341 28.7535C22.4776 28.7535 28.9517 22.301 28.9517 14.384C28.9517 10.5416 27.4532 6.93106 24.7326 4.21957ZM14.5341 26.3175C12.3809 26.3175 10.2713 25.7375 8.42365 24.65L7.98719 24.389L3.44802 25.578L4.65556 21.17L4.36458 20.7205C3.16803 18.8168 2.5328 16.616 2.53146 14.3695C2.53146 7.78656 7.91445 2.42157 14.5195 2.42157C17.7202 2.42157 20.7318 3.66857 22.9868 5.93056C24.1036 7.03816 24.9886 8.35574 25.5905 9.80688C26.1924 11.258 26.4991 12.8138 26.493 14.384C26.5221 20.967 21.1391 26.3175 14.5341 26.3175ZM21.11 17.3855C20.7463 17.2115 18.9714 16.3415 18.6513 16.211C18.3167 16.095 18.0839 16.037 17.8366 16.385C17.5893 16.7475 16.9055 17.5595 16.7018 17.7915C16.4981 18.038 16.2799 18.067 15.9162 17.8785C15.5525 17.7045 14.3886 17.313 13.021 16.095C11.9444 15.138 11.2315 13.9635 11.0133 13.601C10.8096 13.2385 10.9842 13.05 11.1733 12.8615C11.3334 12.702 11.5371 12.441 11.7116 12.238C11.8862 12.035 11.959 11.8755 12.0754 11.6435C12.1917 11.397 12.1335 11.194 12.0463 11.02C11.959 10.846 11.2315 9.07705 10.9406 8.35206C10.6496 7.65606 10.3441 7.74306 10.1258 7.72856H9.4275C9.18018 7.72856 8.80191 7.81556 8.46729 8.17806C8.14722 8.54056 7.21611 9.41055 7.21611 11.1795C7.21611 12.9485 8.51094 14.6595 8.68552 14.8915C8.86011 15.138 11.2315 18.763 14.8396 20.3145C15.698 20.6915 16.3672 20.909 16.8909 21.0685C17.7493 21.344 18.5349 21.3005 19.1605 21.2135C19.8589 21.112 21.2992 20.3435 21.5901 19.5025C21.8957 18.6615 21.8957 17.951 21.7938 17.7915C21.692 17.632 21.4738 17.5595 21.11 17.3855Z" fill="#2F362A"/>
</svg>
