<svg width="345" height="238" viewBox="0 0 345 238" fill="none" xmlns="http://www.w3.org/2000/svg">
<path d="M9.59345 237.44L0 206.621H5.98422L11.4448 224.817C11.6131 225.378 11.7814 225.995 11.931 226.668C12.0806 227.341 12.2115 228.015 12.3238 228.669C12.436 229.324 12.5482 229.941 12.6417 230.502C12.7352 231.063 12.81 231.53 12.9035 231.904L11.7066 231.867C12.0619 230.483 12.3425 229.38 12.5482 228.52C12.7539 227.659 12.9409 226.949 13.0905 226.388C13.2588 225.808 13.4271 225.284 13.5954 224.779L18.7942 211.483H23.6751L28.743 224.779C29.0422 225.602 29.304 226.388 29.5284 227.136C29.7528 227.884 29.9585 228.613 30.1268 229.342C30.2951 230.053 30.4447 230.801 30.5943 231.568L29.5471 231.792C29.6593 231.082 29.7528 230.521 29.8089 230.072C29.865 229.623 29.9211 229.23 29.9772 228.875C30.0333 228.52 30.0894 228.183 30.1455 227.846C30.2016 227.51 30.2951 227.098 30.426 226.612C30.5569 226.126 30.7252 225.509 30.9309 224.742L36.3541 206.64H42.3009L32.6514 237.477H28.5185L20.683 218.72L21.2066 218.889L13.7637 237.477H9.57475L9.59345 237.44Z" fill="white"/>
<path d="M47.2148 237.441V206.604H52.9373V237.441H47.2148ZM49.5898 224.762V219.395H69.7679V224.762H49.5898ZM66.9815 237.441V206.604H72.7039V237.441H66.9815Z" fill="white"/>
<path d="M80.1055 237.441V232.373H85.1734V211.671H80.1055V206.604H95.9636V211.671H90.8958V232.373H95.9636V237.441H80.1055Z" fill="white"/>
<path d="M109.453 237.441V211.896H100.645V206.604H124.245V211.896H115.175V237.441H109.453Z" fill="white"/>
<path d="M129.867 237.441V206.604H150.045V211.802H135.515V232.242H150.232V237.441H129.886H129.867ZM132.523 224.238V219.133H147.801V224.238H132.523Z" fill="white"/>
<path d="M170.355 237.441V206.604H175.779L187.018 224.874L183.839 224.837L195.209 206.604H200.37V237.441H194.685V225.865C194.685 223.228 194.76 220.835 194.891 218.722C195.022 216.608 195.246 214.514 195.583 212.419L196.293 214.308L186.737 229.063H183.839L174.582 214.439L175.199 212.419C175.517 214.383 175.741 216.403 175.872 218.478C176.003 220.554 176.078 223.004 176.078 225.865V237.441H170.393H170.355Z" fill="white"/>
<path d="M205.199 237.441L217.224 206.604H222.591L234.522 237.441H228.575L221.974 219.918C221.824 219.563 221.637 219.002 221.375 218.235C221.132 217.469 220.852 216.646 220.552 215.748C220.253 214.851 219.991 214.009 219.767 213.242C219.524 212.457 219.356 211.896 219.243 211.54L220.347 211.503C220.178 212.083 219.973 212.756 219.73 213.485C219.487 214.215 219.243 214.981 218.982 215.767C218.72 216.552 218.458 217.319 218.215 218.048C217.972 218.778 217.729 219.451 217.523 220.031L210.922 237.422H205.199V237.441ZM210.66 230.409L212.642 225.435H226.686L228.799 230.409H210.66Z" fill="white"/>
<path d="M239.375 237.44V206.603H244.536L262.414 230.689L261.442 230.857C261.33 230.035 261.217 229.193 261.124 228.333C261.03 227.473 260.956 226.556 260.881 225.621C260.806 224.686 260.75 223.695 260.712 222.667C260.675 221.638 260.638 220.553 260.6 219.431C260.563 218.309 260.563 217.112 260.563 215.841V206.584H266.248V237.421H261.012L243.04 213.69L244.181 213.372C244.331 215.018 244.462 216.421 244.555 217.58C244.667 218.739 244.742 219.731 244.798 220.572C244.854 221.414 244.91 222.106 244.948 222.667C244.985 223.228 245.023 223.733 245.041 224.181C245.06 224.63 245.06 225.079 245.06 225.472V237.403H239.375V237.44Z" fill="white"/>
<path d="M280.695 237.441V211.896H271.887V206.604H295.487V211.896H286.417V237.441H280.695Z" fill="white"/>
<path d="M300.203 237.441V232.373H305.271V211.671H300.203V206.604H316.061V211.671H310.993V232.373H316.061V237.441H300.203Z" fill="white"/>
<path d="M333.149 237.887C331.354 237.887 329.708 237.663 328.212 237.214C326.716 236.765 325.37 236.073 324.154 235.157C322.938 234.24 321.873 233.137 320.938 231.847L324.678 227.62C326.118 229.621 327.52 231.005 328.904 231.753C330.288 232.52 331.84 232.894 333.579 232.894C334.57 232.894 335.487 232.744 336.309 232.426C337.132 232.127 337.768 231.697 338.254 231.155C338.722 230.612 338.965 229.995 338.965 229.285C338.965 228.78 338.871 228.331 338.684 227.901C338.497 227.471 338.198 227.097 337.824 226.76C337.45 226.423 336.964 226.106 336.422 225.806C335.861 225.507 335.225 225.264 334.533 225.058C333.822 224.853 333.056 224.666 332.195 224.479C330.587 224.161 329.166 223.731 327.969 223.188C326.772 222.646 325.744 221.973 324.939 221.169C324.117 220.364 323.518 219.448 323.125 218.438C322.751 217.428 322.546 216.269 322.546 214.979C322.546 213.688 322.826 212.491 323.406 211.407C323.986 210.322 324.771 209.387 325.762 208.583C326.753 207.798 327.913 207.18 329.241 206.732C330.568 206.283 331.99 206.077 333.504 206.077C335.244 206.077 336.777 206.283 338.142 206.694C339.507 207.106 340.704 207.723 341.751 208.527C342.799 209.331 343.659 210.303 344.332 211.463L340.536 215.203C339.956 214.287 339.283 213.539 338.554 212.94C337.824 212.342 337.02 211.874 336.179 211.575C335.337 211.276 334.439 211.108 333.486 211.108C332.42 211.108 331.503 211.257 330.737 211.556C329.97 211.856 329.353 212.267 328.904 212.809C328.455 213.352 328.249 214.006 328.249 214.773C328.249 215.353 328.38 215.876 328.642 216.344C328.904 216.793 329.278 217.204 329.764 217.559C330.25 217.915 330.868 218.214 331.634 218.476C332.401 218.738 333.261 218.981 334.234 219.186C335.842 219.504 337.301 219.934 338.591 220.477C339.881 221.019 340.985 221.674 341.901 222.422C342.817 223.17 343.509 224.03 343.977 224.984C344.444 225.937 344.687 227.003 344.687 228.181C344.687 230.201 344.201 231.94 343.247 233.399C342.294 234.858 340.947 235.961 339.227 236.746C337.488 237.532 335.468 237.906 333.149 237.906V237.887Z" fill="white"/>
<path d="M164.885 153.191V163.692C164.885 165.301 163.581 166.605 161.972 166.605C160.363 166.605 159.058 165.301 159.057 163.692V142.97L164.885 153.191Z" fill="white"/>
<path d="M187.421 163.692C187.42 165.301 186.115 166.605 184.506 166.605C182.897 166.605 181.592 165.301 181.591 163.692V153.241L187.421 143.014V163.692Z" fill="white"/>
<path d="M223.023 1.26109C223.937 -0.0632974 225.751 -0.396681 227.076 0.515982C228.401 1.42939 228.734 3.24526 227.821 4.57023L187.934 62.4291L187.936 62.4309C187.604 62.914 187.421 63.5034 187.421 64.0928V116.767L181.591 126.99V64.0928C181.592 62.3226 182.136 60.5823 183.135 59.1291L183.136 59.1255L223.023 1.26109Z" fill="white"/>
<path d="M119.401 0.515982C120.726 -0.3973 122.542 -0.0636203 123.455 1.26109L163.342 59.1255L163.344 59.1291C164.343 60.5824 164.885 62.3226 164.885 64.0928V126.939L159.057 116.718V64.0928C159.057 63.5031 158.873 62.9141 158.541 62.4309L118.656 4.57023C117.742 3.24531 118.076 1.4294 119.401 0.515982Z" fill="white"/>
<path d="M225.174 23.9209C231.892 23.9209 236.084 31.396 232.694 37.3428L173.241 141.616L113.789 37.3428C110.399 31.396 114.575 23.9209 121.309 23.9209H225.174Z" stroke="white" stroke-width="5.57981" stroke-linecap="round" stroke-linejoin="round"/>
<path d="M161.974 163.69L103.111 78.4826C99.0709 72.6417 100.584 64.5311 106.425 60.6119L110.511 57.873" stroke="white" stroke-width="5.57981" stroke-linejoin="round"/>
<path d="M184.504 163.692L243.367 78.4699C247.407 72.629 245.894 64.5184 240.053 60.5992L235.967 57.8604" stroke="white" stroke-width="5.57981" stroke-linejoin="round"/>
</svg>
