<svg width="345" height="238" viewBox="0 0 345 238" fill="none" xmlns="http://www.w3.org/2000/svg">
<path d="M9.59345 237.441L0 206.622H5.98422L11.4448 224.818C11.6131 225.379 11.7814 225.996 11.931 226.669C12.0806 227.342 12.2115 228.016 12.3238 228.67C12.436 229.325 12.5482 229.942 12.6417 230.503C12.7352 231.064 12.81 231.531 12.9035 231.905L11.7066 231.868C12.0619 230.484 12.3425 229.381 12.5482 228.521C12.7539 227.66 12.9409 226.95 13.0905 226.389C13.2588 225.809 13.4271 225.285 13.5954 224.78L18.7942 211.484H23.6751L28.743 224.78C29.0422 225.603 29.304 226.389 29.5284 227.137C29.7528 227.885 29.9585 228.614 30.1268 229.343C30.2951 230.054 30.4447 230.802 30.5943 231.569L29.5471 231.793C29.6593 231.083 29.7528 230.522 29.8089 230.073C29.865 229.624 29.9211 229.231 29.9772 228.876C30.0333 228.521 30.0894 228.184 30.1455 227.847C30.2016 227.511 30.2951 227.099 30.426 226.613C30.5569 226.127 30.7252 225.51 30.9309 224.743L36.3541 206.641H42.3009L32.6514 237.478H28.5185L20.683 218.721L21.2066 218.89L13.7637 237.478H9.57475L9.59345 237.441Z" fill="#6C7A5F"/>
<path d="M47.2148 237.442V206.604H52.9373V237.442H47.2148ZM49.5898 224.763V219.396H69.7679V224.763H49.5898ZM66.9815 237.442V206.604H72.7039V237.442H66.9815Z" fill="#6C7A5F"/>
<path d="M80.1055 237.442V232.374H85.1734V211.672H80.1055V206.604H95.9636V211.672H90.8958V232.374H95.9636V237.442H80.1055Z" fill="#6C7A5F"/>
<path d="M109.453 237.442V211.897H100.645V206.604H124.245V211.897H115.175V237.442H109.453Z" fill="#6C7A5F"/>
<path d="M129.867 237.442V206.604H150.045V211.803H135.515V232.243H150.232V237.442H129.886H129.867ZM132.523 224.239V219.134H147.801V224.239H132.523Z" fill="#6C7A5F"/>
<path d="M170.355 237.442V206.604H175.779L187.018 224.875L183.839 224.838L195.209 206.604H200.37V237.442H194.685V225.866C194.685 223.229 194.76 220.836 194.891 218.723C195.022 216.609 195.246 214.515 195.583 212.42L196.293 214.309L186.737 229.064H183.839L174.582 214.44L175.199 212.42C175.517 214.384 175.741 216.404 175.872 218.479C176.003 220.555 176.078 223.005 176.078 225.866V237.442H170.393H170.355Z" fill="#6C7A5F"/>
<path d="M205.199 237.442L217.224 206.604H222.591L234.522 237.442H228.575L221.974 219.919C221.824 219.564 221.637 219.003 221.375 218.236C221.132 217.47 220.852 216.647 220.552 215.749C220.253 214.851 219.991 214.01 219.767 213.243C219.524 212.458 219.356 211.897 219.243 211.541L220.347 211.504C220.178 212.084 219.973 212.757 219.73 213.486C219.487 214.216 219.243 214.982 218.982 215.768C218.72 216.553 218.458 217.32 218.215 218.049C217.972 218.779 217.729 219.452 217.523 220.032L210.922 237.423H205.199V237.442ZM210.66 230.41L212.642 225.436H226.686L228.799 230.41H210.66Z" fill="#6C7A5F"/>
<path d="M239.375 237.441V206.604H244.536L262.414 230.69L261.442 230.858C261.33 230.036 261.217 229.194 261.124 228.334C261.03 227.474 260.956 226.557 260.881 225.622C260.806 224.687 260.75 223.696 260.712 222.668C260.675 221.639 260.638 220.554 260.6 219.432C260.563 218.31 260.563 217.113 260.563 215.842V206.585H266.248V237.422H261.012L243.04 213.691L244.181 213.373C244.331 215.019 244.462 216.422 244.555 217.581C244.667 218.74 244.742 219.732 244.798 220.573C244.854 221.415 244.91 222.107 244.948 222.668C244.985 223.229 245.023 223.733 245.041 224.182C245.06 224.631 245.06 225.08 245.06 225.473V237.404H239.375V237.441Z" fill="#6C7A5F"/>
<path d="M280.695 237.442V211.897H271.887V206.604H295.487V211.897H286.417V237.442H280.695Z" fill="#6C7A5F"/>
<path d="M300.203 237.442V232.374H305.271V211.672H300.203V206.604H316.061V211.672H310.993V232.374H316.061V237.442H300.203Z" fill="#6C7A5F"/>
<path d="M333.149 237.888C331.354 237.888 329.708 237.664 328.212 237.215C326.716 236.766 325.37 236.074 324.154 235.158C322.938 234.241 321.873 233.138 320.938 231.848L324.678 227.621C326.118 229.622 327.52 231.006 328.904 231.754C330.288 232.521 331.84 232.895 333.579 232.895C334.57 232.895 335.487 232.745 336.309 232.427C337.132 232.128 337.768 231.698 338.254 231.156C338.722 230.613 338.965 229.996 338.965 229.286C338.965 228.781 338.871 228.332 338.684 227.902C338.497 227.472 338.198 227.098 337.824 226.761C337.45 226.424 336.964 226.107 336.422 225.807C335.861 225.508 335.225 225.265 334.533 225.059C333.822 224.854 333.056 224.667 332.195 224.48C330.587 224.162 329.166 223.732 327.969 223.189C326.772 222.647 325.744 221.974 324.939 221.17C324.117 220.365 323.518 219.449 323.125 218.439C322.751 217.429 322.546 216.27 322.546 214.98C322.546 213.689 322.826 212.492 323.406 211.408C323.986 210.323 324.771 209.388 325.762 208.584C326.753 207.799 327.913 207.181 329.241 206.733C330.568 206.284 331.99 206.078 333.504 206.078C335.244 206.078 336.777 206.284 338.142 206.695C339.507 207.107 340.704 207.724 341.751 208.528C342.799 209.332 343.659 210.304 344.332 211.464L340.536 215.204C339.956 214.288 339.283 213.54 338.554 212.941C337.824 212.343 337.02 211.875 336.179 211.576C335.337 211.277 334.439 211.109 333.486 211.109C332.42 211.109 331.503 211.258 330.737 211.557C329.97 211.857 329.353 212.268 328.904 212.81C328.455 213.353 328.249 214.007 328.249 214.774C328.249 215.354 328.38 215.877 328.642 216.345C328.904 216.794 329.278 217.205 329.764 217.56C330.25 217.916 330.868 218.215 331.634 218.477C332.401 218.738 333.261 218.982 334.234 219.187C335.842 219.505 337.301 219.935 338.591 220.478C339.881 221.02 340.985 221.674 341.901 222.423C342.817 223.171 343.509 224.031 343.977 224.985C344.444 225.938 344.687 227.004 344.687 228.182C344.687 230.202 344.201 231.941 343.247 233.4C342.294 234.858 340.947 235.962 339.227 236.747C337.488 237.533 335.468 237.907 333.149 237.907V237.888Z" fill="#6C7A5F"/>
<path d="M164.885 153.19V163.691C164.885 165.3 163.581 166.604 161.972 166.604C160.363 166.604 159.058 165.3 159.057 163.691V142.969L164.885 153.19Z" fill="#6C7A5F"/>
<path d="M187.421 163.691C187.42 165.3 186.115 166.604 184.506 166.604C182.897 166.604 181.592 165.3 181.591 163.691V153.24L187.421 143.013V163.691Z" fill="#6C7A5F"/>
<path d="M223.023 1.26011C223.937 -0.0642739 225.751 -0.397658 227.076 0.515005C228.401 1.42841 228.734 3.24428 227.821 4.56925L187.934 62.4281L187.936 62.43C187.604 62.913 187.421 63.5024 187.421 64.0918V116.766L181.591 126.989V64.0918C181.592 62.3216 182.136 60.5814 183.135 59.1281L183.136 59.1245L223.023 1.26011Z" fill="#6C7A5F"/>
<path d="M119.401 0.515005C120.726 -0.398276 122.542 -0.0645968 123.455 1.26011L163.342 59.1245L163.344 59.1281C164.343 60.5814 164.885 62.3216 164.885 64.0918V126.938L159.057 116.717V64.0918C159.057 63.5022 158.873 62.9131 158.541 62.43L118.656 4.56925C117.742 3.24434 118.076 1.42842 119.401 0.515005Z" fill="#6C7A5F"/>
<path d="M225.174 23.9219C231.892 23.9219 236.084 31.397 232.694 37.3438L173.241 141.617L113.789 37.3438C110.399 31.397 114.575 23.9219 121.309 23.9219H225.174Z" stroke="#6C7A5F" stroke-width="5.57981" stroke-linecap="round" stroke-linejoin="round"/>
<path d="M161.974 163.69L103.111 78.4826C99.0709 72.6417 100.584 64.5311 106.425 60.6119L110.511 57.873" stroke="#6C7A5F" stroke-width="5.57981" stroke-linejoin="round"/>
<path d="M184.504 163.693L243.367 78.4709C247.407 72.63 245.894 64.5193 240.053 60.6002L235.967 57.8613" stroke="#6C7A5F" stroke-width="5.57981" stroke-linejoin="round"/>
</svg>
